# xmcd
#
# Track frame offsets: 
#        150
#        15100
#        29782
#        46655
#        65292
#        82650
#        99370
#        113537
#        131742
#        147170
#        163545
#        182092
#        198992
#        214297
#
# Disc length: 3091 seconds
#
# Revision: 7
# Processed by: cddbd v1.5.2PL0 Copyright (c) Steve Scherf et al.
# Submitted via: ExactAudioCopy v0.99pb4
#
DISCID=ae0c110e
DTITLE=Just Friends - Friends Forever
DYEAR=1996
DGENRE=Pop
TTITLE0=Ever and ever
TTITLE1=Come together
TTITLE2=Anytime anyplace
TTITLE3=The present that I want
TTITLE4=Open your heart
TTITLE5=Eight days a week
TTITLE6=Friends
TTITLE7=Good times and bad times
TTITLE8=I saw your smile
TTITLE9=Can't stop the rain
TTITLE10=I miss you
TTITLE11=Reach out
TTITLE12=Deep in my heart
TTITLE13=Just a little sign
EXTD=YEAR: 1996
EXTT0=
EXTT1=
EXTT2=
EXTT3=
EXTT4=
EXTT5=
EXTT6=
EXTT7=
EXTT8=
EXTT9=
EXTT10=
EXTT11=
EXTT12=
EXTT13=
PLAYORDER=
